<svg xmlns="http://www.w3.org/2000/svg" viewBox="0 0 25 13" width="25" height="13">
	<style>
		tspan { white-space:pre }
		.shp0 { fill: #6d7749 } 
	</style>
	<g id="Footer">
		<g id="Newsletter">
			<path id="Arrow" class="shp0" d="M24.83 6.08L24.83 6.08L19.15 0.17C18.94 -0.07 18.59 -0.1 18.35 0.11C18.11 0.32 18.08 0.7 18.29 0.94C18.3 0.97 18.33 0.99 18.35 1.01L23.06 5.91L0.57 5.91C0.25 5.91 0 6.17 0 6.5C0 6.82 0.25 7.09 0.57 7.09L23.06 7.09L18.35 11.98C18.11 12.19 18.08 12.57 18.29 12.81C18.49 13.06 18.85 13.09 19.09 12.88C19.11 12.86 19.13 12.84 19.15 12.81L24.83 6.91C25.05 6.68 25.05 6.31 24.83 6.08Z" />
		</g>
	</g>
</svg>