<svg xmlns="http://www.w3.org/2000/svg" viewBox="0 0 23 23" width="23" height="23">
	<style>
		tspan { white-space:pre }
		.shp0 { fill: #ffffff } 
	</style>
	<g id="Header">
		<g id="Login / Search / cart">
			<path id="Icon" class="shp0" d="M20.84 20.98L15.98 16.12C17.29 14.62 18.08 12.66 18.08 10.53C18.08 5.82 14.25 2 9.55 2C4.85 2 1.02 5.83 1.02 10.53C1.02 15.23 4.85 19.06 9.55 19.06C11.69 19.06 13.64 18.27 15.14 16.96L20 21.82C20.12 21.94 20.27 22 20.42 22C20.57 22 20.73 21.94 20.84 21.82C21.07 21.59 21.07 21.21 20.84 20.98ZM2.22 10.53C2.22 6.48 5.51 3.2 9.55 3.2C13.59 3.2 16.88 6.49 16.88 10.53C16.88 14.57 13.59 17.86 9.55 17.86C5.51 17.86 2.22 14.57 2.22 10.53Z" />
		</g>
	</g>
</svg>