<svg xmlns="http://www.w3.org/2000/svg" viewBox="0 0 40 21" width="40" height="21">
	<style>
		tspan { white-space:pre }
		.shp0 { fill: #6d7749 } 
	</style>
	<g id="Featured products">
		<path id="Right" class="shp0" d="M39.73 10.35L39.73 10.35L30.64 1.27C30.31 0.89 29.74 0.84 29.36 1.17C28.97 1.5 28.93 2.07 29.26 2.45C29.29 2.49 29.32 2.52 29.36 2.55L36.89 10.09L0.91 10.09C0.41 10.09 0 10.49 0 11C0 11.5 0.41 11.9 0.91 11.9L36.89 11.9L29.36 19.43C28.97 19.76 28.93 20.33 29.26 20.71C29.58 21.1 30.16 21.14 30.54 20.81C30.57 20.78 30.61 20.75 30.64 20.71L39.73 11.63C40.08 11.28 40.08 10.71 39.73 10.35Z" />
	</g>
</svg>