<svg xmlns="http://www.w3.org/2000/svg" viewBox="0 0 16 15" width="16" height="15">
	<style>
		tspan { white-space:pre }
		.shp0 { fill: #6d7749 } 
	</style>
	<g id="Featured products">
		<g id="1">
			<g id="Ratings">
				<path id="1" class="shp0" d="M15.29 5.11L10.89 4.7C10.61 4.67 10.37 4.5 10.25 4.24L8.68 0.45C8.42 -0.17 7.53 -0.17 7.27 0.45L5.71 4.24C5.61 4.5 5.35 4.67 5.08 4.7L0.67 5.11C0.01 5.17 -0.25 5.98 0.24 6.42L3.56 9.31C3.78 9.49 3.86 9.77 3.8 10.04L2.8 14.09C2.65 14.73 3.35 15.25 3.93 14.91L7.6 12.78C7.84 12.64 8.13 12.64 8.37 12.78L12.05 14.91C12.63 15.25 13.32 14.74 13.17 14.09L12.19 10.04C12.12 9.77 12.21 9.49 12.43 9.31L15.75 6.42C16.23 5.98 15.95 5.17 15.29 5.11Z" />
			</g>
		</g>
	</g>
</svg>